<!DOCTYPE svg PUBLIC "-//W3C//DTD SVG 1.1//EN" "http://www.w3.org/Graphics/SVG/1.1/DTD/svg11.dtd">

<!-- Uploaded to: SVG Repo, www.svgrepo.com, Transformed by: SVG Repo Mixer Tools -->
<svg height="80px" width="80px" version="1.1" id="Layer_1" xmlns="http://www.w3.org/2000/svg" xmlns:xlink="http://www.w3.org/1999/xlink" viewBox="0 0 512 512" xml:space="preserve" style="rotate:180deg" fill="#000000">

<g id="SVGRepo_bgCarrier" stroke-width="0"/>

<g id="SVGRepo_tracerCarrier" stroke-linecap="round" stroke-linejoin="round"/>

<g id="SVGRepo_iconCarrier"> 

<path style="fill:#FFC61B;" d="M175.55,236.03c0-60.23-62.204-62.204-62.204-62.204c60.23,0,62.204-62.204,62.204-62.204 c0,60.23,62.204,62.204,62.204,62.204C177.524,173.827,175.55,236.03,175.55,236.03z"/> 
<path style="fill:#E09112;" d="M175.55,111.621c0,60.23,62.204,62.204,62.204,62.204c-60.23,0-62.204,62.204-62.204,62.204V111.621z "/> 
<path style="fill:#FFC61B;" d="M175.981,378.54c0-30.88-31.892-31.892-31.892-31.892c30.88,0,31.892-31.892,31.892-31.892 c0,30.88,31.892,31.892,31.892,31.892C176.995,346.648,175.981,378.54,175.981,378.54z"/> 
<path style="fill:#E09112;" d="M175.981,314.756c0,30.88,31.892,31.892,31.892,31.892c-30.88,0-31.892,31.892-31.892,31.892V314.756 z"/> 
<path style="fill:#FFC61B;" d="M314.109,355.268c0-98.968-102.214-102.214-102.214-102.214 c98.968,0,102.214-102.214,102.214-102.214c0,98.968,102.214,102.214,102.214,102.214 C317.356,253.054,314.109,355.268,314.109,355.268z"/> 
<path style="fill:#E09112;" d="M314.109,150.84c0,98.968,102.214,102.214,102.214,102.214 c-98.968,0-102.214,102.214-102.214,102.214V150.84z"/> </g>

</svg>